<?xml version="1.0" encoding="utf-8"?>
<!-- Generator: Adobe Illustrator 16.0.0, SVG Export Plug-In . SVG Version: 6.00 Build 0)  -->
<!DOCTYPE svg PUBLIC "-//W3C//DTD SVG 1.1//EN" "http://www.w3.org/Graphics/SVG/1.1/DTD/svg11.dtd">
<svg version="1.1" id="Layer_1" xmlns="http://www.w3.org/2000/svg" xmlns:xlink="http://www.w3.org/1999/xlink" x="0px" y="0px"
	 width="380px" height="111.465px" viewBox="0 0 380 111.465" enable-background="new 0 0 380 111.465" xml:space="preserve">
<path d="M180.376,56.646c-18.907,0-37.463-17.247-37.463-34.818c0-3.61,1.35-9.174,5.137-13.963C150.887,4.277,156.038,0,164.461,0
	c11.878,0,16.19,8.68,16.19,14.514c0,5.257-4.365,7.217-7.116,7.217c-1.639,0-6.983-0.392-6.983-5.439
	c0-3.456,3.137-3.544,3.168-3.545c0.125,0.005,1.021,0.065,1.345,0.661l-0.658,0.358c-0.084-0.157-0.461-0.258-0.7-0.271
	c-0.073,0.003-2.407,0.087-2.407,2.797c0,4.353,4.772,4.691,6.235,4.691c2.56,0,6.368-1.723,6.368-6.468
	c0-5.533-4.112-13.765-15.441-13.765c-14.698,0-20.799,13.729-20.799,21.08c0,17.195,18.186,34.07,36.715,34.07v0.747H180.376z
	 M180.376,52.194c-10.153,0-18.414-6.371-18.414-14.202c0-3.417,2.522-6.196,5.622-6.196c3.101,0,5.624,2.78,5.624,6.196
	c0,1.653-1.345,2.998-2.999,2.998v-0.749c1.241,0,2.25-1.009,2.25-2.25c0-3.004-2.187-5.448-4.875-5.448s-4.874,2.444-4.874,5.448
	c0,7.418,7.925,13.454,17.666,13.454V52.194z M180.376,56.646c-25.498,0-42.698-9.335-59.331-18.364
	c-16.414-8.909-31.917-17.324-54.658-17.324V20.21c22.931,0,38.515,8.459,55.014,17.415c16.552,8.984,33.667,18.274,58.975,18.274
	V56.646z M59,76.086c-15.427,0-27.977-12.551-27.977-27.977c0-17.78,12.89-27.978,35.365-27.978v0.749
	c-31.243,0-34.616,19.042-34.616,27.229c0,15.014,12.214,27.229,27.229,27.229c14.201,0,24.509-10.055,24.509-23.908h0.749
	C84.257,65.717,73.635,76.086,59,76.086z M84.257,51.43h-0.749c0-9.14-8.497-16.032-19.765-16.032V34.65
	C75.439,34.65,84.257,41.864,84.257,51.43z M58.801,66.135c-9.709,0-15.741-6.031-15.741-15.742
	c0-10.817,10.723-15.743,20.685-15.743v0.749c-9.602,0-19.936,4.692-19.936,14.995c0,7.249,3.938,14.993,14.993,14.993
	c2.019,0,3.776-0.812,5.224-2.41c2.504-2.768,3.54-7.421,3.242-10.396c-0.002-0.05-0.018-1.378-0.858-1.941
	c-0.569-0.381-1.419-0.347-2.523,0.103l-0.282-0.693c1.351-0.55,2.436-0.56,3.226-0.029c1.171,0.788,1.185,2.453,1.185,2.523
	c0.319,3.176-0.756,7.979-3.434,10.938C62.984,65.24,61.04,66.135,58.801,66.135z M59.996,76.104c-0.334,0-0.67-0.006-1.008-0.018
	l0.024-0.748c12.271,0.402,21.636-6.822,30.697-13.809c8.475-6.534,16.479-12.706,26.435-12.706c7.13,0,12.931,5.801,12.931,12.932
	s-5.801,12.933-12.931,12.933c-3.885,0-7.529-1.724-9.999-4.728l0.578-0.478c2.326,2.832,5.76,4.455,9.42,4.455
	c6.717,0,12.183-5.465,12.183-12.184c0-6.718-5.465-12.184-12.183-12.184c-9.701,0-17.607,6.096-25.978,12.55
	C81.248,68.998,72.032,76.102,59.996,76.104z M12.465,61.663C3.854,61.663,0,53.762,0,45.933c0-22.53,39.541-34.82,59.856-34.82
	c26.278,0,45.143,11.807,63.387,23.225C140.96,45.427,157.695,55.9,180.376,55.9v0.749c-22.896,0-39.72-10.528-57.531-21.675
	c-18.154-11.362-36.926-23.111-62.99-23.111c-20.061,0-59.107,12.026-59.107,34.072c0,8.961,4.708,14.981,11.717,14.981
	c6.46,0,11.717-5.256,11.717-11.717c0-1.983-0.724-3.849-2.039-5.252c-1.31-1.399-3.048-2.169-4.895-2.169
	c-4.342,0-6.934,2.92-6.934,7.811c0,2.253,1.833,4.086,4.087,4.086c1.707,0,3.249-1.077,3.836-2.679l0.703,0.257
	c-0.695,1.896-2.519,3.17-4.539,3.17c-2.666,0-4.835-2.169-4.835-4.835c0-6.311,3.969-8.559,7.683-8.559
	c4.236,0,7.683,3.666,7.683,8.17C24.931,56.071,19.338,61.663,12.465,61.663z M192.266,84.424c0-3.621-2.662-6.556-5.945-6.556
	c-1.947,0-4.326,1.037-5.944,2.632c-1.618-1.595-3.997-2.632-5.944-2.632c-3.284,0-5.945,2.935-5.945,6.556
	c0,0-0.96,4.863,5.945,8.762c0,0,4.651,3.67,5.944,4.727c1.294-1.057,5.945-4.727,5.945-4.727
	C193.227,89.287,192.266,84.424,192.266,84.424z M43.279,98.359H42.53c0-10.25,8.338-18.59,18.588-18.59
	c5.909,0,13.163,0.938,21.562,2.021c18.32,2.365,41.121,5.309,66.609,1.018c9.648-1.625,10.137-11.377,10.137-13.315
	c0-4.853-3.948-8.8-8.801-8.8c-3.84,0-6.965,3.123-6.965,6.966c0,3.03,2.466,5.498,5.498,5.498c2.383,0,4.323-1.94,4.323-4.324
	h0.749c0,2.797-2.275,5.072-5.072,5.072c-3.444,0-6.246-2.804-6.246-6.246c0-4.255,3.46-7.716,7.714-7.716
	c5.266,0,9.549,4.285,9.549,9.55c0,2.045-0.519,12.327-10.761,14.053c-25.599,4.312-48.46,1.361-66.83-1.012
	c-8.374-1.08-15.605-2.015-21.466-2.015C51.282,80.52,43.279,88.521,43.279,98.359z M55.646,111.465
	c-7.252,0-13.116-5.863-13.116-13.07h0.749c0,6.795,5.528,12.322,12.323,12.322c5.372,0,9.707-4.335,9.707-9.662
	c0.09-2.51-0.775-4.859-2.445-6.668c-1.669-1.809-3.943-2.857-6.403-2.955c-1.936-0.074-3.809,0.607-5.24,1.93
	c-1.432,1.322-2.263,3.123-2.341,5.07c-0.061,1.537,0.48,3.008,1.524,4.139c1.044,1.13,2.466,1.785,4.004,1.848
	c2.507,0.091,4.613-1.854,4.713-4.352c0.077-1.957-1.453-3.613-3.41-3.69c-0.734-0.028-1.444,0.229-1.987,0.731
	s-0.858,1.186-0.888,1.925L52.09,99c0.037-0.938,0.438-1.805,1.127-2.441c0.69-0.639,1.585-0.976,2.525-0.931
	c2.369,0.093,4.221,2.097,4.127,4.468c-0.117,2.911-2.581,5.178-5.491,5.068c-1.737-0.068-3.344-0.811-4.524-2.087
	c-1.18-1.278-1.792-2.938-1.722-4.677c0.085-2.146,1.002-4.131,2.581-5.59c1.578-1.457,3.619-2.219,5.778-2.127
	c2.659,0.104,5.117,1.239,6.923,3.194c1.795,1.942,2.73,4.468,2.636,7.108l0.007,0.066
	C66.058,106.795,61.387,111.465,55.646,111.465z M180.376,56.646v-0.749c18.53,0,36.715-16.875,36.715-34.07
	c0-7.351-6.103-21.08-20.799-21.08c-11.328,0-15.44,8.232-15.44,13.765c0,4.746,3.808,6.468,6.367,6.468
	c1.463,0,6.235-0.338,6.235-4.691c0-2.71-2.335-2.794-2.435-2.796c-0.211,0.013-0.587,0.114-0.673,0.271l-0.657-0.358
	c0.325-0.596,1.219-0.656,1.319-0.661c0.057,0,3.193,0.089,3.193,3.544c0,5.047-5.345,5.439-6.983,5.439
	c-2.751,0-7.115-1.959-7.115-7.217C180.104,8.68,184.416,0,196.293,0c8.424,0,13.574,4.277,16.412,7.866
	c3.786,4.789,5.135,10.353,5.135,13.963C217.84,39.401,199.283,56.646,180.376,56.646z M180.376,52.194v-0.749
	c9.742,0,17.667-6.035,17.667-13.454c0-3.004-2.188-5.448-4.874-5.448c-2.688,0-4.875,2.444-4.875,5.448c0,1.24,1.01,2.25,2.25,2.25
	v0.749c-1.654,0-2.999-1.345-2.999-2.998c0-3.417,2.522-6.196,5.623-6.196c3.102,0,5.623,2.78,5.623,6.196
	C198.793,45.823,190.531,52.194,180.376,52.194z M180.376,56.646v-0.749c25.31,0,42.424-9.29,58.976-18.274
	c16.5-8.956,32.084-17.415,55.015-17.415v0.749c-22.741,0-38.243,8.415-54.657,17.324C223.075,47.311,205.875,56.646,180.376,56.646
	z M301.755,76.086c-14.635,0-25.258-10.369-25.258-24.656h0.749c0,13.853,10.309,23.908,24.509,23.908
	c15.014,0,27.229-12.215,27.229-27.229c0-8.187-3.373-27.229-34.616-27.229v-0.749c22.476,0,35.365,10.198,35.365,27.978
	C329.731,63.535,317.181,76.086,301.755,76.086z M277.246,51.43h-0.749c0-9.566,8.817-16.78,20.513-16.78v0.749
	C285.742,35.398,277.246,42.291,277.246,51.43z M301.953,66.135c-2.238,0-4.182-0.894-5.777-2.656
	c-2.677-2.957-3.754-7.76-3.434-10.975c-0.002-0.034,0.012-1.698,1.184-2.486c0.787-0.531,1.873-0.521,3.225,0.029l-0.281,0.693
	c-1.104-0.45-1.954-0.483-2.525-0.101c-0.844,0.568-0.854,1.889-0.854,1.902c-0.299,3.014,0.736,7.67,3.242,10.436
	c1.447,1.6,3.203,2.409,5.222,2.409c7.248,0,14.993-3.938,14.993-14.993c0-10.302-10.335-14.995-19.938-14.995V34.65
	c9.963,0,20.687,4.926,20.687,15.743C317.695,60.104,311.663,66.135,301.953,66.135z M300.759,76.104
	c-12.038,0-21.251-7.104-30.171-13.98c-8.37-6.454-16.277-12.55-25.979-12.55c-6.719,0-12.184,5.465-12.184,12.184
	c0,6.718,5.465,12.185,12.184,12.185c3.66,0,7.096-1.623,9.422-4.455l0.578,0.477c-2.471,3.004-6.113,4.727-10,4.727
	c-7.131,0-12.933-5.801-12.933-12.932s5.802-12.932,12.933-12.932c9.957,0,17.961,6.172,26.436,12.706
	c9.062,6.985,18.438,14.235,30.697,13.809l0.025,0.748C301.43,76.098,301.092,76.104,300.759,76.104z M348.288,61.663
	c-6.873,0-12.465-5.592-12.465-12.466c0-4.505,3.445-8.17,7.683-8.17c3.714,0,7.684,2.249,7.684,8.559
	c0,2.666-2.17,4.835-4.836,4.835c-2.021,0-3.844-1.274-4.539-3.17l0.701-0.258c0.59,1.603,2.131,2.68,3.838,2.68
	c2.254,0,4.088-1.833,4.088-4.086c0-4.891-2.594-7.811-6.936-7.811c-3.824,0-6.934,3.33-6.934,7.422
	c0,6.461,5.256,11.717,11.716,11.717c7.01,0,11.719-6.021,11.719-14.981c0-22.045-39.047-34.072-59.108-34.072
	c-26.062,0-44.836,11.749-62.989,23.11c-17.812,11.147-34.636,21.676-57.532,21.676v-0.75c22.682,0,39.417-10.473,57.135-21.562
	c18.244-11.417,37.108-23.224,63.387-23.224c20.315,0,59.857,12.291,59.857,34.82C360.756,53.762,356.901,61.663,348.288,61.663z
	 M359.915,109.133c-14.363,0-23.153-7.615-24.748-21.441c-1.498-12.973-6.132-39.252-6.179-39.517l0.736-0.131
	c0.047,0.264,4.685,26.567,6.185,39.562c1.569,13.594,9.87,20.778,24.006,20.778c11.565,0,19.337-8.942,19.337-22.253
	c0-11-8.532-14.904-15.838-14.904c-9.34,0-14.915,4.758-14.915,12.728c0,7.021,5.708,12.729,12.725,12.729
	c4.714,0,8.55-3.834,8.55-8.548c0-4.712-3.836-8.546-8.55-8.546c-2.255,0-4.091,1.836-4.091,4.094h-0.748
	c0-2.67,2.17-4.843,4.839-4.843c5.127,0,9.298,4.17,9.298,9.295s-4.171,9.296-9.298,9.296c-7.43,0-13.474-6.046-13.474-13.478
	c0-9.937,8.092-13.476,15.664-13.476c4.085,0,8.077,1.232,10.953,3.385c3.686,2.755,5.633,6.996,5.633,12.269
	C380,99.889,371.928,109.133,359.915,109.133z M318.225,98.359h-0.749c0-9.838-8.003-17.84-17.841-17.84
	c-5.859,0-13.092,0.934-21.465,2.014c-18.369,2.371-41.232,5.324-66.831,1.012c-10.243-1.725-10.762-12.008-10.762-14.053
	c0-5.266,4.284-9.549,9.55-9.549c4.253,0,7.713,3.461,7.713,7.715c0,3.443-2.802,6.246-6.246,6.246c-2.795,0-5.07-2.275-5.07-5.072
	h0.748c0,2.384,1.939,4.324,4.322,4.324c3.031,0,5.498-2.467,5.498-5.498c0-3.842-3.125-6.967-6.965-6.967
	c-4.854,0-8.801,3.949-8.801,8.801c0,1.938,0.488,11.689,10.137,13.314c25.489,4.293,48.291,1.35,66.611-1.017
	c8.398-1.084,15.65-2.021,21.561-2.021C309.886,79.771,318.225,88.109,318.225,98.359z M305.15,111.465
	c-5.784,0-10.455-4.67-10.455-10.41l0.014-0.1c-0.109-2.58,0.826-5.121,2.631-7.076s4.264-3.09,6.922-3.195
	c4.436-0.187,8.185,3.287,8.36,7.719c0.069,1.736-0.543,3.397-1.723,4.676c-1.182,1.277-2.787,2.02-4.524,2.087
	c-1.418,0.06-2.76-0.438-3.796-1.396s-1.638-2.263-1.694-3.672c-0.046-1.147,0.357-2.244,1.137-3.089
	c0.781-0.845,1.844-1.335,2.992-1.38c0.934-0.044,1.834,0.292,2.522,0.93c0.689,0.639,1.09,1.506,1.128,2.442l-0.748,0.031
	c-0.029-0.739-0.345-1.423-0.888-1.925c-0.542-0.502-1.253-0.764-1.985-0.731c-0.949,0.038-1.827,0.442-2.472,1.142
	c-0.644,0.696-0.978,1.603-0.938,2.551c0.049,1.211,0.564,2.328,1.454,3.149c0.892,0.822,2.054,1.246,3.259,1.2
	c1.537-0.062,2.959-0.718,4.004-1.848c1.045-1.131,1.587-2.602,1.524-4.139c-0.161-4.02-3.567-7.156-7.583-7
	c-2.459,0.098-4.73,1.146-6.4,2.955s-2.535,4.158-2.437,6.617l0.002,0.059l-0.017,0.056c0.005,5.265,4.34,9.6,9.668,9.6
	c6.84,0,12.367-5.528,12.367-12.323h0.749C318.225,105.602,312.36,111.465,305.15,111.465z"/>
</svg>
